<mxfile host="app.diagrams.net" modified="2023-08-18T02:04:40.460Z" agent="Mozilla/5.0 (X11; Linux x86_64) AppleWebKit/537.36 (KHTML, like Gecko) Chrome/115.0.0.0 Safari/537.36" etag="01i6avxrMdScCynCcZ0x" version="21.6.8" type="github">
  <diagram id="R2lEEEUBdFMjLlhIrx00" name="Page-1">
    <mxGraphModel dx="439" dy="1896" grid="1" gridSize="10" guides="1" tooltips="1" connect="1" arrows="1" fold="1" page="1" pageScale="1" pageWidth="850" pageHeight="1100" math="0" shadow="0" extFonts="Permanent Marker^https://fonts.googleapis.com/css?family=Permanent+Marker">
      <root>
        <mxCell id="0" />
        <mxCell id="1" parent="0" />
        <mxCell id="DcpCzpSSXXpE8XUykud_-1" style="edgeStyle=orthogonalEdgeStyle;rounded=0;orthogonalLoop=1;jettySize=auto;html=1;exitX=0.5;exitY=1;exitDx=0;exitDy=0;entryX=0.5;entryY=0;entryDx=0;entryDy=0;" edge="1" parent="1" source="isi5Kg9pmnxvlFfEDFuE-3" target="isi5Kg9pmnxvlFfEDFuE-18">
          <mxGeometry relative="1" as="geometry" />
        </mxCell>
        <mxCell id="isi5Kg9pmnxvlFfEDFuE-3" value="eps" style="rounded=1;whiteSpace=wrap;html=1;" parent="1" vertex="1">
          <mxGeometry x="250" y="10" width="120" height="40" as="geometry" />
        </mxCell>
        <mxCell id="isi5Kg9pmnxvlFfEDFuE-5" value="-areas&#xa;   -salon&#xa;      -computadores&#xa;-" style="text;whiteSpace=wrap;" parent="1" vertex="1">
          <mxGeometry x="120" y="660" width="130" height="80" as="geometry" />
        </mxCell>
        <mxCell id="isi5Kg9pmnxvlFfEDFuE-15" style="edgeStyle=orthogonalEdgeStyle;rounded=0;orthogonalLoop=1;jettySize=auto;html=1;exitX=0.5;exitY=0;exitDx=0;exitDy=0;" parent="1" source="isi5Kg9pmnxvlFfEDFuE-5" target="isi5Kg9pmnxvlFfEDFuE-5" edge="1">
          <mxGeometry relative="1" as="geometry" />
        </mxCell>
        <mxCell id="isi5Kg9pmnxvlFfEDFuE-31" style="edgeStyle=orthogonalEdgeStyle;rounded=0;orthogonalLoop=1;jettySize=auto;html=1;exitX=0.5;exitY=1;exitDx=0;exitDy=0;" parent="1" source="isi5Kg9pmnxvlFfEDFuE-17" target="isi5Kg9pmnxvlFfEDFuE-18" edge="1">
          <mxGeometry relative="1" as="geometry" />
        </mxCell>
        <mxCell id="isi5Kg9pmnxvlFfEDFuE-17" value="emailPersona" style="rounded=1;whiteSpace=wrap;html=1;" parent="1" vertex="1">
          <mxGeometry x="80" y="10" width="120" height="40" as="geometry" />
        </mxCell>
        <mxCell id="isi5Kg9pmnxvlFfEDFuE-18" value="persona" style="rounded=1;whiteSpace=wrap;html=1;" parent="1" vertex="1">
          <mxGeometry x="250" y="100" width="120" height="40" as="geometry" />
        </mxCell>
        <mxCell id="DcpCzpSSXXpE8XUykud_-2" style="edgeStyle=orthogonalEdgeStyle;rounded=0;orthogonalLoop=1;jettySize=auto;html=1;exitX=0.5;exitY=1;exitDx=0;exitDy=0;entryX=0.5;entryY=0;entryDx=0;entryDy=0;" edge="1" parent="1" source="isi5Kg9pmnxvlFfEDFuE-19" target="isi5Kg9pmnxvlFfEDFuE-18">
          <mxGeometry relative="1" as="geometry" />
        </mxCell>
        <mxCell id="isi5Kg9pmnxvlFfEDFuE-19" value="telefonoPersona" style="rounded=1;whiteSpace=wrap;html=1;" parent="1" vertex="1">
          <mxGeometry x="390" y="10" width="120" height="40" as="geometry" />
        </mxCell>
        <mxCell id="isi5Kg9pmnxvlFfEDFuE-30" style="edgeStyle=orthogonalEdgeStyle;rounded=0;orthogonalLoop=1;jettySize=auto;html=1;exitX=1;exitY=0.5;exitDx=0;exitDy=0;endArrow=ERmandOne;endFill=0;startArrow=ERmandOne;startFill=0;" parent="1" source="isi5Kg9pmnxvlFfEDFuE-20" target="isi5Kg9pmnxvlFfEDFuE-18" edge="1">
          <mxGeometry relative="1" as="geometry" />
        </mxCell>
        <mxCell id="isi5Kg9pmnxvlFfEDFuE-20" value="tipoId" style="rounded=1;whiteSpace=wrap;html=1;" parent="1" vertex="1">
          <mxGeometry x="50" y="100" width="120" height="40" as="geometry" />
        </mxCell>
        <mxCell id="isi5Kg9pmnxvlFfEDFuE-28" style="edgeStyle=orthogonalEdgeStyle;rounded=0;orthogonalLoop=1;jettySize=auto;html=1;exitX=0.5;exitY=0;exitDx=0;exitDy=0;endArrow=ERoneToMany;endFill=0;startArrow=ERoneToMany;startFill=0;" parent="1" source="isi5Kg9pmnxvlFfEDFuE-21" target="isi5Kg9pmnxvlFfEDFuE-18" edge="1">
          <mxGeometry relative="1" as="geometry">
            <mxPoint x="240" y="210" as="targetPoint" />
          </mxGeometry>
        </mxCell>
        <mxCell id="isi5Kg9pmnxvlFfEDFuE-21" value="tipoPersona" style="rounded=1;whiteSpace=wrap;html=1;" parent="1" vertex="1">
          <mxGeometry x="70" y="210" width="120" height="40" as="geometry" />
        </mxCell>
        <mxCell id="isi5Kg9pmnxvlFfEDFuE-27" style="edgeStyle=orthogonalEdgeStyle;rounded=0;orthogonalLoop=1;jettySize=auto;html=1;exitX=0.5;exitY=0;exitDx=0;exitDy=0;entryX=0.75;entryY=1;entryDx=0;entryDy=0;endArrow=ERmandOne;endFill=0;startArrow=ERmandOne;startFill=0;" parent="1" source="isi5Kg9pmnxvlFfEDFuE-22" target="isi5Kg9pmnxvlFfEDFuE-18" edge="1">
          <mxGeometry relative="1" as="geometry" />
        </mxCell>
        <mxCell id="isi5Kg9pmnxvlFfEDFuE-22" value="Pais" style="rounded=1;whiteSpace=wrap;html=1;" parent="1" vertex="1">
          <mxGeometry x="280" y="240" width="120" height="40" as="geometry" />
        </mxCell>
        <mxCell id="isi5Kg9pmnxvlFfEDFuE-25" style="edgeStyle=orthogonalEdgeStyle;rounded=0;orthogonalLoop=1;jettySize=auto;html=1;exitX=0.5;exitY=0;exitDx=0;exitDy=0;entryX=0.5;entryY=1;entryDx=0;entryDy=0;endArrow=ERmandOne;endFill=0;startArrow=ERoneToMany;startFill=0;" parent="1" source="isi5Kg9pmnxvlFfEDFuE-23" target="isi5Kg9pmnxvlFfEDFuE-24" edge="1">
          <mxGeometry relative="1" as="geometry" />
        </mxCell>
        <mxCell id="isi5Kg9pmnxvlFfEDFuE-23" value="Departamento" style="rounded=1;whiteSpace=wrap;html=1;" parent="1" vertex="1">
          <mxGeometry x="280" y="390" width="120" height="40" as="geometry" />
        </mxCell>
        <mxCell id="isi5Kg9pmnxvlFfEDFuE-26" style="edgeStyle=orthogonalEdgeStyle;rounded=1;orthogonalLoop=1;jettySize=auto;html=1;exitX=0.5;exitY=0;exitDx=0;exitDy=0;entryX=0.5;entryY=1;entryDx=0;entryDy=0;endArrow=ERmandOne;endFill=0;startArrow=ERoneToMany;startFill=0;" parent="1" source="isi5Kg9pmnxvlFfEDFuE-24" target="isi5Kg9pmnxvlFfEDFuE-22" edge="1">
          <mxGeometry relative="1" as="geometry" />
        </mxCell>
        <mxCell id="isi5Kg9pmnxvlFfEDFuE-24" value="Ciudad" style="rounded=1;whiteSpace=wrap;html=1;" parent="1" vertex="1">
          <mxGeometry x="280" y="310" width="120" height="40" as="geometry" />
        </mxCell>
        <mxCell id="DcpCzpSSXXpE8XUykud_-3" value="" style="rounded=1;whiteSpace=wrap;html=1;" vertex="1" parent="1">
          <mxGeometry x="390" y="-70" width="120" height="40" as="geometry" />
        </mxCell>
      </root>
    </mxGraphModel>
  </diagram>
</mxfile>
